<?xml version="1.0" encoding="utf-8"?>
<!-- Generator: Adobe Illustrator 27.0.0, SVG Export Plug-In . SVG Version: 6.00 Build 0)  -->
<svg version="1.1" id="Layer_1" xmlns="http://www.w3.org/2000/svg" xmlns:xlink="http://www.w3.org/1999/xlink" x="0px" y="0px"
	 viewBox="0 0 377.98 226.85" style="enable-background:new 0 0 377.98 226.85;" xml:space="preserve">
<style type="text/css">
	.st0{fill:#010101;}
</style>
<g>
	<path class="st0" d="M203.62,76.5c3.18-3.19,5.15-7.59,5.15-12.45c0-9.73-7.89-17.62-17.62-17.62c-6.15,0-11.56,3.16-14.72,7.94
		c-0.84,0.84-71,87.31-71.65,88.31c-3.18,3.19-5.15,7.59-5.15,12.45c0,9.73,7.89,17.62,17.62,17.62c6.15,0,11.56-3.16,14.72-7.94
		C132.8,163.97,202.96,77.49,203.62,76.5z"/>
	<path class="st0" d="M244.22,117.53c3.19-3.19,5.16-7.59,5.16-12.46c0-9.73-7.89-17.62-17.62-17.62c-6.16,0-11.57,3.16-14.72,7.94
		c-0.84,0.84-37.69,46.27-38.35,47.27c-3.19,3.19-5.16,7.59-5.16,12.46c0,9.73,7.89,17.62,17.62,17.62c6.16,0,11.57-3.16,14.72-7.94
		C206.71,163.96,243.56,118.53,244.22,117.53z"/>
	<g>
		<path class="st0" d="M282.66,64.05c0,9.73-7.89,17.62-17.62,17.62c-9.73,0-17.62-7.89-17.62-17.62c0-9.73,7.89-17.62,17.62-17.62
			C274.77,46.43,282.66,54.32,282.66,64.05z"/>
	</g>
	<g>
		<path class="st0" d="M134.88,64.05c0,9.73-7.89,17.62-17.62,17.62c-9.73,0-17.62-7.89-17.62-17.62c0-9.73,7.89-17.62,17.62-17.62
			C126.98,46.43,134.88,54.32,134.88,64.05z"/>
	</g>
</g>
</svg>
