<?xml version="1.0" encoding="utf-8"?>
<!-- Generator: Adobe Illustrator 21.0.2, SVG Export Plug-In . SVG Version: 6.00 Build 0)  -->
<svg version="1.1" id="Layer_1" xmlns="http://www.w3.org/2000/svg" xmlns:xlink="http://www.w3.org/1999/xlink" x="0px" y="0px"
	 viewBox="0 0 378 226.9" style="enable-background:new 0 0 378 226.9;" xml:space="preserve">
<style type="text/css">
	.st0{fill:#FFFFFF;}
</style>
<g>
	<path class="st0" d="M203.6,76.5c3.2-3.2,5.1-7.6,5.1-12.4c0-9.7-7.9-17.6-17.6-17.6c-6.1,0-11.6,3.2-14.7,7.9
		c-0.8,0.8-71,87.3-71.7,88.3c-3.2,3.2-5.2,7.6-5.2,12.4c0,9.7,7.9,17.6,17.6,17.6c6.2,0,11.6-3.2,14.7-7.9
		C132.8,164,203,77.5,203.6,76.5z"/>
	<path class="st0" d="M244.2,117.5c3.2-3.2,5.2-7.6,5.2-12.5c0-9.7-7.9-17.6-17.6-17.6c-6.2,0-11.6,3.2-14.7,7.9
		c-0.8,0.8-37.7,46.3-38.4,47.3c-3.2,3.2-5.2,7.6-5.2,12.5c0,9.7,7.9,17.6,17.6,17.6c6.2,0,11.6-3.2,14.7-7.9
		C206.7,164,243.6,118.5,244.2,117.5z"/>
	<g>
		<path class="st0" d="M282.7,64c0,9.7-7.9,17.6-17.6,17.6c-9.7,0-17.6-7.9-17.6-17.6s7.9-17.6,17.6-17.6
			C274.8,46.4,282.7,54.3,282.7,64z"/>
	</g>
	<g>
		<path class="st0" d="M134.9,64c0,9.7-7.9,17.6-17.6,17.6S99.6,73.8,99.6,64s7.9-17.6,17.6-17.6C127,46.4,134.9,54.3,134.9,64z"/>
	</g>
</g>
</svg>
